<svg version="1.0" xmlns="http://www.w3.org/2000/svg" width="682.667" height="682.667" viewBox="0 0 512 512"><path d="M245.2 29.7c-6.4 3.1-6.2 1-6.2 68.5s0 67.4 6.2 79c1.7 3.2 5.7 8.7 8.9 12.2 3.3 3.5 5.9 6.8 5.8 7.3 0 .4-3.9 4.2-8.6 8.3-14.4 12.6-51.2 49.7-63.4 64-34 39.5-54.2 73.4-63.5 106l-2.4 8.5.5-8.5c4-61.3 19.6-137.5 35.5-172.5 5.8-12.8 5.1-22.2-2.3-30.2-10.3-11.2-26.6-12.6-36.5-3-5 4.7-9.5 14.4-16.7 35.9C91.2 239 79.6 286.4 74.6 319c-5.9 38.7-7.9 85.6-4.3 99.5 6.6 25 24.4 45.4 47.3 54.1 14.4 5.5 10.3 5.3 167.7 5.4 161.1 0 150 .5 155.3-6.6 5.6-7.2 3.2-20.3-5.4-29.6-3-3.2-7.7-6.1-18.1-11.3l-14.1-6.9-14-42.1-14-42V208l3.7-3.2c20.4-18 28.1-29.2 30.3-44.3.5-4 1-31.2 1-64.3 0-62.3 0-62.2-5.6-65.8-1.5-1-4.4-1.9-6.4-1.9-3.3 0-6.9 2.5-30 19.8L341.7 68H307l-24.3-18.2c-30.7-23.1-31-23.3-37.5-20.1z"/></svg>